<?xml version="1.0" standalone="no"?>
<!DOCTYPE svg PUBLIC "-//W3C//DTD SVG 20010904//EN"
 "http://www.w3.org/TR/2001/REC-SVG-20010904/DTD/svg10.dtd">
<svg version="1.0" xmlns="http://www.w3.org/2000/svg"
 width="1280.000000pt" height="1280.000000pt" viewBox="0 0 1280.000000 1280.000000"
 preserveAspectRatio="xMidYMid meet">
<g transform="translate(0.000000,1280.000000) scale(0.100000,-0.100000)"
fill="#000000" stroke="none">
<path d="M6244 12543 c3 -142 9 -543 12 -890 l7 -633 74 0 75 0 -6 113 c-3 61
-8 407 -11 767 -3 360 -8 710 -11 778 l-6 122 -71 0 -70 0 7 -257z"/>
<path d="M9407 11913 c-351 -626 -797 -1440 -793 -1448 2 -6 27 -23 56 -39 43
-24 54 -26 64 -15 18 20 846 1513 846 1526 0 6 -27 24 -59 42 l-60 31 -54 -97z"/>
<path d="M3113 11879 c-46 -27 -52 -33 -43 -50 28 -51 894 -1466 905 -1478 11
-11 22 -7 69 23 56 36 56 36 42 64 -58 108 -897 1468 -908 1469 -7 2 -37 -11
-65 -28z"/>
<path d="M6835 11867 c-10 -31 -93 -843 -87 -848 4 -4 35 -10 69 -13 59 -7 63
-6 67 16 8 33 86 777 86 811 0 31 -4 33 -78 41 -37 4 -54 1 -57 -7z"/>
<path d="M5718 11833 c-16 -2 -28 -10 -28 -17 0 -13 96 -739 106 -799 l6 -39
62 7 c33 4 65 10 69 14 6 6 -67 600 -99 804 -6 36 -7 37 -47 36 -23 -1 -54 -4
-69 -6z"/>
<path d="M7313 11373 c-50 -225 -88 -411 -84 -415 10 -11 120 -32 128 -25 6 7
183 791 183 813 0 10 -89 34 -125 34 -7 0 -46 -156 -102 -407z"/>
<path d="M5176 11746 c-27 -7 -51 -16 -53 -21 -3 -13 181 -813 190 -821 7 -8
125 15 131 25 2 3 -29 148 -69 321 -40 173 -83 359 -95 413 -24 107 -19 103
-104 83z"/>
<path d="M7959 11637 c-16 -37 -249 -777 -249 -791 0 -13 118 -61 127 -52 7 7
264 819 260 822 -2 2 -31 12 -66 23 l-62 19 -10 -21z"/>
<path d="M4640 11588 c-30 -11 -58 -24 -63 -27 -6 -6 184 -545 272 -773 l10
-27 58 20 c32 11 61 23 66 28 7 7 -266 775 -282 793 -3 3 -31 -3 -61 -14z"/>
<path d="M8496 11451 c-14 -22 -326 -757 -326 -767 0 -14 112 -64 123 -55 9 9
339 772 335 776 -4 4 -119 55 -124 55 -1 0 -5 -4 -8 -9z"/>
<path d="M4108 11372 c-32 -14 -58 -31 -58 -38 0 -27 354 -754 367 -754 22 0
113 49 113 61 0 13 -351 749 -359 753 -3 2 -32 -8 -63 -22z"/>
<path d="M9267 10570 c-131 -182 -240 -337 -243 -344 -5 -12 85 -86 104 -86 7
1 484 661 490 679 4 11 -85 81 -102 81 -7 0 -119 -149 -249 -330z"/>
<path d="M3111 10779 c-34 -27 -48 -45 -44 -54 5 -7 120 -159 257 -339 l250
-325 26 17 c15 9 41 28 59 43 l32 25 -258 337 c-142 185 -261 336 -264 337 -4
0 -29 -18 -58 -41z"/>
<path d="M9685 10249 c-148 -170 -271 -316 -273 -323 -2 -7 19 -32 47 -55 l50
-42 268 307 c147 169 272 314 277 322 7 12 -2 26 -40 59 -26 24 -51 43 -54 43
-3 0 -126 -140 -275 -311z"/>
<path d="M2675 10419 c-25 -23 -45 -47 -45 -54 0 -13 567 -608 585 -613 13 -3
98 83 94 96 -4 10 -580 612 -586 612 -2 0 -24 -19 -48 -41z"/>
<path d="M10060 9879 c-168 -154 -306 -284 -308 -288 -3 -10 77 -101 89 -101
13 0 609 548 616 567 5 13 -72 104 -87 103 -3 -1 -142 -127 -310 -281z"/>
<path d="M2277 10006 c-20 -25 -37 -51 -36 -58 0 -12 612 -534 633 -540 4 -2
28 20 53 49 l44 51 -320 271 c-176 149 -323 271 -328 271 -5 0 -25 -20 -46
-44z"/>
<path d="M10406 9483 c-184 -137 -336 -253 -336 -259 0 -21 72 -105 85 -100
23 8 674 490 675 499 0 10 -73 107 -81 107 -4 0 -158 -111 -343 -247z"/>
<path d="M11101 9275 c-414 -244 -756 -446 -758 -449 -3 -3 12 -32 32 -66 35
-58 38 -60 59 -47 11 7 347 205 746 440 399 235 731 431 739 436 11 7 7 21
-23 70 -21 34 -38 61 -39 60 -1 0 -341 -200 -756 -444z"/>
<path d="M1917 9546 c-33 -50 -35 -55 -19 -69 30 -25 666 -440 683 -444 11 -3
27 12 47 45 18 27 32 53 32 58 0 9 -673 456 -695 462 -6 2 -28 -22 -48 -52z"/>
<path d="M853 9578 c-18 -24 -65 -110 -61 -113 3 -4 1356 -767 1465 -826 l71
-40 31 54 c17 30 31 59 31 64 0 6 -334 198 -742 428 -409 230 -752 425 -764
432 -17 11 -23 11 -31 1z"/>
<path d="M10960 8575 c-201 -96 -369 -176 -375 -178 -11 -4 44 -127 56 -127
11 0 752 349 762 359 12 12 -44 121 -63 120 -8 0 -179 -79 -380 -174z"/>
<path d="M1368 8558 c-21 -50 -23 -65 -13 -71 24 -13 754 -317 763 -317 8 0
65 120 59 126 -5 5 -768 324 -775 324 -5 0 -20 -28 -34 -62z"/>
<path d="M11155 8088 c-214 -72 -392 -132 -394 -134 -8 -7 42 -135 53 -131 6
2 184 62 396 132 212 70 389 131 394 135 12 12 -28 125 -45 127 -8 1 -189 -57
-404 -129z"/>
<path d="M1187 8073 c-10 -16 -37 -117 -33 -121 6 -6 788 -242 802 -242 14 0
49 120 37 130 -9 9 -768 240 -788 240 -8 0 -16 -3 -18 -7z"/>
<path d="M11301 7580 c-216 -49 -395 -91 -398 -94 -7 -7 14 -118 25 -128 6 -6
803 165 822 177 7 4 3 31 -15 113 -3 13 -13 22 -23 21 -9 0 -194 -40 -411 -89z"/>
<path d="M1030 7474 c-6 -30 -9 -61 -7 -68 3 -7 51 -22 109 -34 56 -11 240
-50 408 -86 168 -35 306 -63 308 -62 8 8 25 127 19 133 -9 8 -772 172 -804
173 -18 0 -23 -9 -33 -56z"/>
<path d="M11420 7064 c-201 -24 -380 -47 -398 -50 l-33 -5 7 -62 c3 -34 9 -65
13 -69 4 -4 803 83 829 91 4 2 2 79 -4 110 -5 24 -12 31 -28 30 -11 -1 -185
-21 -386 -45z"/>
<path d="M946 6898 c-3 -34 -3 -65 1 -69 6 -5 803 -90 834 -89 8 0 23 129 16
136 -5 5 -764 84 -810 84 l-34 0 -7 -62z"/>
<path d="M11670 6539 c-300 -3 -566 -7 -592 -8 l-48 -1 0 -70 0 -71 573 6
c314 3 713 8 885 11 l312 6 0 69 0 69 -292 -2 c-161 -1 -538 -5 -838 -9z"/>
<path d="M793 6393 l-793 -3 0 -70 0 -70 882 2 883 3 0 70 0 70 -90 0 c-49 0
-447 -1 -882 -2z"/>
<path d="M11007 5978 c-2 -35 -2 -66 2 -70 7 -8 830 -82 837 -76 9 10 17 138
8 138 -5 0 -182 16 -393 35 -212 19 -399 35 -417 35 l-32 0 -5 -62z"/>
<path d="M1485 5890 c-121 -15 -289 -36 -374 -46 l-154 -17 7 -65 c3 -36 9
-68 13 -72 7 -6 823 88 831 95 1 1 -1 31 -5 66 l-8 64 -45 2 c-25 1 -144 -11
-265 -27z"/>
<path d="M10941 5510 c-6 -28 -11 -59 -11 -68 0 -15 59 -29 398 -96 218 -44
404 -81 413 -84 13 -3 19 10 29 63 7 36 10 69 6 72 -6 7 -781 163 -807 163
-13 0 -20 -14 -28 -50z"/>
<path d="M1443 5341 c-210 -47 -384 -89 -388 -93 -3 -3 -1 -33 6 -67 11 -50
17 -61 33 -61 30 0 790 171 800 181 5 4 2 33 -6 66 -12 50 -17 58 -38 59 -14
1 -197 -37 -407 -85z"/>
<path d="M10830 5076 c-19 -52 -33 -107 -27 -112 10 -10 800 -254 807 -249 9
5 44 124 39 129 -3 3 -579 184 -767 241 -41 13 -43 12 -52 -9z"/>
<path d="M1588 4842 c-207 -70 -380 -130 -384 -134 -10 -11 27 -128 40 -128
30 0 796 263 795 273 0 7 -8 35 -18 62 -12 35 -23 51 -37 52 -10 1 -189 -55
-396 -125z"/>
<path d="M10654 4584 c-13 -30 -24 -61 -24 -68 0 -8 150 -75 378 -169 207 -86
383 -158 390 -159 16 -4 66 112 54 124 -8 8 -225 100 -655 278 l-118 49 -25
-55z"/>
<path d="M1790 4339 c-201 -93 -369 -174 -375 -180 -6 -6 1 -31 20 -69 l30
-60 380 176 c209 97 382 178 384 180 8 7 -52 124 -63 124 -6 -1 -175 -77 -376
-171z"/>
<path d="M10440 4144 c-17 -31 -29 -61 -27 -68 5 -12 1491 -849 1517 -854 11
-2 27 16 48 56 l31 58 -722 407 c-397 223 -743 418 -768 432 l-47 25 -32 -56z"/>
<path d="M1623 3647 c-409 -243 -743 -448 -743 -454 0 -22 62 -114 74 -110 35
15 1491 886 1494 895 4 14 -57 112 -71 112 -7 0 -346 -199 -754 -443z"/>
<path d="M10166 3724 c-21 -31 -36 -57 -34 -59 10 -10 684 -468 694 -472 16
-6 91 105 78 116 -18 16 -673 461 -687 467 -9 3 -27 -16 -51 -52z"/>
<path d="M2315 3440 c-181 -137 -331 -253 -333 -259 -3 -10 64 -111 74 -111
12 0 674 502 674 511 0 14 -69 109 -78 108 -4 0 -155 -112 -337 -249z"/>
<path d="M9881 3353 c-23 -27 -41 -51 -41 -54 0 -6 578 -523 613 -548 17 -12
23 -9 63 30 25 24 43 49 42 57 -3 13 -617 562 -629 562 -4 0 -26 -21 -48 -47z"/>
<path d="M2755 3127 c-105 -100 -242 -230 -304 -289 l-113 -107 43 -51 c23
-27 46 -50 52 -50 8 0 78 65 500 467 l118 112 -47 51 c-26 27 -49 50 -53 50
-3 -1 -92 -83 -196 -183z"/>
<path d="M9536 2998 c-26 -22 -46 -46 -44 -53 4 -20 558 -615 572 -615 7 0 32
20 56 45 l44 45 -35 37 c-20 21 -147 158 -282 305 -136 147 -251 269 -255 272
-5 3 -29 -14 -56 -36z"/>
<path d="M3203 2863 c-226 -250 -458 -516 -461 -528 -2 -7 19 -31 47 -54 l50
-42 44 48 c24 26 120 134 212 238 93 105 200 225 239 269 l70 78 -50 44 c-27
24 -52 43 -56 44 -4 0 -46 -44 -95 -97z"/>
<path d="M9175 2699 c-22 -16 -44 -34 -48 -38 -10 -10 477 -674 497 -679 14
-3 106 64 106 78 0 16 -486 665 -501 667 -8 2 -32 -11 -54 -28z"/>
<path d="M3420 2327 c-129 -182 -236 -338 -238 -347 -2 -14 83 -80 104 -80 11
0 478 658 482 679 2 15 -83 82 -104 81 -5 -1 -115 -150 -244 -333z"/>
<path d="M8752 2419 l-53 -31 28 -48 c318 -543 871 -1459 883 -1459 19 -1 110
56 110 68 0 19 -889 1496 -901 1498 -8 2 -38 -11 -67 -28z"/>
<path d="M4056 2368 c-64 -103 -825 -1513 -819 -1518 17 -15 113 -63 118 -59
11 12 835 1525 835 1534 0 10 -92 65 -110 65 -5 0 -16 -10 -24 -22z"/>
<path d="M8328 2194 c-27 -13 -48 -29 -48 -35 0 -21 344 -751 357 -756 15 -6
126 44 120 54 -2 5 -82 178 -177 386 -122 264 -178 377 -189 377 -9 -1 -37
-12 -63 -26z"/>
<path d="M4506 2162 c-4 -6 -278 -650 -322 -758 -6 -13 117 -67 127 -57 7 7
329 760 329 769 0 4 -80 40 -108 48 -11 4 -23 3 -26 -2z"/>
<path d="M7878 2018 c-32 -11 -58 -26 -58 -33 0 -14 265 -783 272 -790 9 -9
128 37 128 49 0 7 -61 187 -135 400 -74 214 -135 390 -135 392 0 6 -12 4 -72
-18z"/>
<path d="M4955 1988 c-25 -73 -235 -780 -235 -790 0 -17 119 -54 130 -41 9 11
240 774 240 794 0 11 -19 21 -60 32 -71 20 -70 20 -75 5z"/>
<path d="M7415 1886 c-30 -7 -51 -18 -53 -27 -3 -15 176 -800 184 -808 7 -8
126 22 130 33 2 6 -38 191 -90 411 -67 290 -96 400 -107 401 -8 1 -36 -4 -64
-10z"/>
<path d="M5411 1828 c-35 -176 -141 -752 -141 -767 0 -22 13 -28 80 -37 38 -5
51 -3 55 7 3 8 39 194 80 413 54 290 72 402 63 407 -6 4 -31 10 -56 14 -24 4
-50 9 -57 12 -9 3 -17 -12 -24 -49z"/>
<path d="M6925 1803 c-22 -3 -43 -8 -47 -11 -6 -6 86 -794 97 -828 2 -8 23 -8
71 -2 38 5 70 10 71 11 1 2 -103 824 -106 835 -1 2 -23 1 -86 -5z"/>
<path d="M5910 1794 c0 -5 -18 -195 -40 -423 -22 -228 -39 -416 -37 -417 1 -1
32 -5 69 -8 l66 -7 6 28 c9 45 79 813 75 817 -9 9 -139 18 -139 10z"/>
<path d="M6390 1502 c0 -148 3 -546 7 -886 l6 -617 66 3 66 3 3 120 c2 66 0
463 -3 883 l-7 762 -69 0 -69 0 0 -268z"/>
</g>
</svg>
